<svg width="58" height="58" viewBox="0 0 58 58" fill="none" xmlns="http://www.w3.org/2000/svg">
<path d="M0 7.73333C0 3.46233 3.46233 0 7.73333 0H50.2667C54.5377 0 58 3.46233 58 7.73333V50.2667C58 54.5377 54.5377 58 50.2667 58H7.73333C3.46233 58 0 54.5377 0 50.2667V7.73333Z" fill="#252A33"/>
<path d="M25.5719 25.2977C23.6772 25.2977 22.3577 26.5495 22.3577 28.9855V37.41H18.2301V28.7148C18.1962 26.5157 16.9444 25.2977 15.3204 25.2977C13.6287 25.2977 12.0047 26.2788 12.0047 28.9855V37.41H7.87707V21.6098H12.0047V23.9443C12.9182 22.0158 15.0159 21.3053 16.5384 21.3053C19.0759 21.4407 20.6661 22.3203 21.5796 24.2488C23.0344 21.6098 25.3351 21.2715 26.5531 21.2715C30.3762 21.2715 32.6431 23.7413 32.6431 28.3765V37.41H28.5492V28.8163C28.5492 26.5157 27.2974 25.2977 25.5719 25.2977Z" fill="white"/>
<path d="M41.2455 28.8163L36.069 21.6098H40.9071L43.6138 25.5007L46.2528 21.6098H51.091L45.9145 28.8163L52.106 37.41H47.3016L43.58 32.132L39.8245 37.41H35.0201L41.2455 28.8163Z" fill="white"/>
</svg>
